<?xml version="1.0" encoding="utf-8"?>
<!-- Generator: Adobe Illustrator 22.0.1, SVG Export Plug-In . SVG Version: 6.00 Build 0)  -->
<svg version="1.1" id="Capa_1" xmlns="http://www.w3.org/2000/svg" xmlns:xlink="http://www.w3.org/1999/xlink" x="0px" y="0px"
	 viewBox="0 0 512 512" style="enable-background:new 0 0 512 512;" xml:space="preserve">
<style type="text/css">
	.st0{fill:#41B4E6;}
	.st1{fill:#0091C8;}
	.st2{fill:#FFFFFF;}
	.st3{fill:#D2D2D7;}
	.st4{fill:#B9B9BE;}
	.st5{fill:#F70000;}
</style>
<circle class="st0" cx="256" cy="256" r="256"/>
<path class="st1" d="M512,256c0-6.2-0.2-12.4-0.7-18.5L405.2,131.4L106.8,248.8L221,363l1.5,5.4l1.9-2l0,0l-1.9,1.9l126.3,126.3
	C444.3,457.5,512,364.7,512,256z"/>
<polygon class="st2" points="231.1,293.3 346.8,380.6 405.2,131.4 106.8,248.8 197.6,278.8 363.3,167.7 "/>
<polygon class="st3" points="197.6,278.8 222.5,368.3 231.1,293.3 363.3,167.7 "/>
<polygon class="st4" points="268.7,321.7 222.5,368.3 231.1,293.3 "/>
<circle class="st5" cx="440" cy="73" r="72"/>
<g>
	<path class="st2" d="M448.9,113.6h-12.6V62.9c0-6.1,0.1-10.8,0.4-14.4c-0.8,0.9-1.8,1.8-3,2.8c-1.2,1-5.2,4.3-12.1,9.9l-6.3-8
		l23.1-18.2h10.5V113.6z"/>
</g>
</svg>
